<svg id="Layer_1" data-name="Layer 1" xmlns="http://www.w3.org/2000/svg" viewBox="0 0 612 792"><defs><style>.cls-1,.cls-2,.cls-3{fill:#231f20;}.cls-2,.cls-3{stroke:#fff;stroke-miterlimit:10;}.cls-2{stroke-width:5.4px;}.cls-3{font-size:60.92px;stroke-width:5.08px;font-family:SegoeUI-Light, Segoe UI;font-weight:300;letter-spacing:0.07em;}.cls-4{letter-spacing:-0.04em;}</style></defs><rect class="cls-1" width="612" height="792"/><path class="cls-2" d="M115.11,289.79c-2.83,2.31-4.24,3.5-7,5.91l0-3.52c6.44-5.95,9.75-8.8,16.52-14.21l.15,4.25c-2.9,2.2-4.35,3.32-7.2,5.6q.9,34,1.81,68l-2.77.11Z" transform="translate(0 -0.04)"/><path class="cls-2" d="M137.52,268.17q.94,19.38,1.9,38.76c5.44-2.16,8.19-3.2,13.71-5.18l-2.34-42.56,2.63-1.66q2.7,48.44,5.39,96.87l-2.77.08-2.61-47.36c-5.55,1.8-8.3,2.74-13.77,4.7q1.05,21.57,2.11,43.14l-2.77.09-4-85Z" transform="translate(0 -0.04)"/><path class="cls-2" d="M184.49,298.15c-4.59,1.17-6.88,1.78-11.43,3.05q1.35,23.35,2.68,46.71c5.27-.29,7.91-.43,13.19-.7.15,2.53.22,3.8.36,6.33-6.4.16-9.6.25-16,.43q-3-52.31-6-104.62c5.87-3.25,8.85-4.79,14.86-7.7l.35,6.31c-4.91,2.25-7.34,3.43-12.17,5.89l2.37,41.37c4.54-1.4,6.83-2.07,11.42-3.35Z" transform="translate(0 -0.04)"/><path class="cls-2" d="M216,341.77c1.43,2.5,4.58,5.37,6,4.92,6.73-2.15,7.77-17.79,7-26.45-.9-10-2.25-20-7.26-29.15a71.31,71.31,0,0,1-10-32.47c-.54-10.43-.08-29.09,9-33.63,2.16-1.08,5,1.08,6.06,2.9-.33,3-.5,4.43-.84,7.37-1.17-2-3.15-3.49-5.36-2.8-4.83,1.51-6.41,13.5-6.09,23.13a60.17,60.17,0,0,0,8.2,28c6.07,10.66,9,23.63,9.14,35.87.12,8.73.38,32.7-9.44,34.53-2.18.4-5.79-2.85-7-5.55C215.65,345.75,215.78,344.43,216,341.77Z" transform="translate(0 -0.04)"/><path class="cls-2" d="M247.2,226.18c-3.45.76-5.17,1.16-8.59,2-.11-2.88-.17-4.33-.28-7.21,8-2.11,12.1-3,20.25-4.58l.21,7.46c-3.46.63-5.2,1-8.65,1.69q2.1,63.39,4.19,126.78l-2.8,0Q249.37,289.28,247.2,226.18Z" transform="translate(0 -0.04)"/><path class="cls-2" d="M274,213.86Q275,261,276,308.21c.46,11,3.4,37.21,7.92,37.44,4.73.24,6.73-28.73,6.78-38.06q-.68-47.74-1.34-95.49l3-.26q.6,47.31,1.19,94.62c-.06,10.47-.47,47.15-9.61,47.25-8.74.09-10.33-34-10.76-43.51L271,214.29Z" transform="translate(0 -0.04)"/><path class="cls-2" d="M308.06,213.08a9.43,9.43,0,0,1,6.72-2.84c3.65,0,7,3.59,8.94,10.1,2.76,9.1,2.9,19,3,28.3a112.57,112.57,0,0,1-2.23,25.48c-2.35,11.27-6.32,17.11-10.56,17.13a5.33,5.33,0,0,1-2.62-.4q.09,30.56.19,61.1h-2.8Q308.4,282.52,308.06,213.08Zm3.23,69.82a3.64,3.64,0,0,0,2.44.6c9.7-1.6,9.87-26.73,9.9-34.71s.36-29.41-9.12-30.81a4.91,4.91,0,0,0-3.42,1.1Q311.2,251,311.29,282.9Z" transform="translate(0 -0.04)"/><path class="cls-2" d="M343.5,212,341.64,352h-2.79q.81-70.14,1.64-140.27C341.69,211.8,342.3,211.85,343.5,212Z" transform="translate(0 -0.04)"/><path class="cls-2" d="M359.22,215.73a6.6,6.6,0,0,1,6-1.81c4.3.67,7.33,4.5,9.44,10.75,5.71,17.83,5.2,37.81,4.66,56-.54,18.67-1.34,38.39-6.56,56.65-3,10.57-7.35,15.45-11.7,15.42a7.43,7.43,0,0,1-4.66-1.27Q357.79,283.61,359.22,215.73Zm.1,128.81a4.24,4.24,0,0,0,2.14.44c15.13-2.22,14.41-51.53,14.77-63.45.42-14.15,3.42-55.42-11.23-60a5.61,5.61,0,0,0-2.93.4Q360.69,283.21,359.32,344.54Z" transform="translate(0 -0.04)"/><path class="cls-2" d="M412.05,227.48a7.55,7.55,0,0,1,6.15-.44c4,1.38,6.91,5.5,8.57,11.58,1.4,5.1,2.07,12.28,1.64,20.92-.68,13.3-3.92,22.12-8.41,25.63l0,.37c7.88,9.13,7,23,6.77,33.87a76.57,76.57,0,0,1-4.28,23.84c-2.81,7.62-6.75,10.19-10.38,10.13-3.18-.06-4.65-.64-5.6-1.23Q409.27,289.83,412.05,227.48Zm.47,53.74,2.65.53c4.75,1,9.32-8.08,10.23-22.38.51-7.87.7-22.15-7.66-25.5a3.81,3.81,0,0,0-3.05,0Q413.61,257.52,412.52,281.22Zm-2.94,64.43a4.67,4.67,0,0,0,2.89.85c9.09-1.57,10.36-17.52,11.34-27.45.86-8.59.73-26.43-9.14-30.82l-2.45-.45Z" transform="translate(0 -0.04)"/><path class="cls-2" d="M443.73,314.23q-2.88,19.56-5.67,39.14l-2.72-.07q8-56,16.58-111.86l2.63,1.28q1.95,55.59,4.17,111.18l-2.85-.08q-.71-18.81-1.36-37.61C450.21,315.39,448.05,315,443.73,314.23Zm10.48-4.14q-.52-15.88-1-31.77c-.29-8.8-.42-16.95-.5-26.14l-.26-.11c-1,8.88-2.13,16.93-3.31,25q-2.25,15.5-4.47,31C448.49,308.86,450.4,309.26,454.21,310.09Z" transform="translate(0 -0.04)"/><path class="cls-2" d="M471.14,354.26q2.81-49.71,5.62-99.41l2.65,1.61q2.67,26.64,5.7,53.24c1.43,12,2.86,24.07,4.18,36.12h.13q.58-20.46,1.65-40.89,1-19.77,2-39.53l2.44,1.71-4.38,87.78-2.78-.09c-2.41-17.26-4.47-34.56-6.47-51.88-1.46-12.49-2.66-25-3.45-37.56l-.12-.07c-.45,15.94-1.35,31.85-2.24,47.76l-2.31,41.28Z" transform="translate(0 -0.04)"/><path class="cls-2" d="M508.59,278.08c1.6.05,3.21,1,4.91,2.43a27.67,27.67,0,0,1,7.77,11.31c3.81,9.57,5.1,20.16,5,30.38-.14,15.64-2.57,22.37-4.79,26.42-2.74,5-7,7.45-11.26,7.3a11.74,11.74,0,0,1-4.62-.85Q507.11,316.58,508.59,278.08Zm-.07,73.23a7.13,7.13,0,0,0,2.1.39c11.91,0,13-21.39,13-30.16,0-12.12-.77-28.74-10.24-36.92a9.89,9.89,0,0,0-2.42-1.41Z" transform="translate(0 -0.04)"/><text class="cls-3" transform="translate(203.21 522.33) scale(1.26 1.07)">NE<tspan class="cls-4" x="82.55" y="0">P</tspan><tspan x="112.99" y="0">AL</tspan></text></svg>